<svg xmlns="http://www.w3.org/2000/svg" width="1200" height="520" viewBox="0 0 1200 520">
<style>
text { font-family: Arial, Helvetica, sans-serif; fill: #111; }
.title { font-size: 26px; font-weight: 700; }
.panel-title { font-size: 18px; font-weight: 700; }
.axis-label { font-size: 15px; }
.tick { font-size: 14px; fill: #333; }
.note { font-size: 13px; fill: #444; }
.grid { stroke: #ddd; stroke-width: 1; }
.axis { stroke: #333; stroke-width: 1.4; }
</style>
<rect width="100%" height="100%" fill="white"/>
<text class="title" x="600" y="36" text-anchor="middle">Block cache hit rate (%)</text>
<text class="note" x="600" y="503" text-anchor="middle">Line shows the median; dots are individual runs.</text>
<text class="panel-title" x="310.0" y="86" text-anchor="middle">Bloom filter</text>
<text class="axis-label" x="310.0" y="450" text-anchor="middle">Bits per key</text>
<line class="grid" x1="105" y1="410.00" x2="515" y2="410.00"/>
<text class="tick" x="93" y="415.00" text-anchor="end">61.8</text>
<line class="grid" x1="105" y1="350.00" x2="515" y2="350.00"/>
<text class="tick" x="93" y="355.00" text-anchor="end">67.7</text>
<line class="grid" x1="105" y1="290.00" x2="515" y2="290.00"/>
<text class="tick" x="93" y="295.00" text-anchor="end">73.6</text>
<line class="grid" x1="105" y1="230.00" x2="515" y2="230.00"/>
<text class="tick" x="93" y="235.00" text-anchor="end">79.6</text>
<line class="grid" x1="105" y1="170.00" x2="515" y2="170.00"/>
<text class="tick" x="93" y="175.00" text-anchor="end">85.5</text>
<line class="grid" x1="105" y1="110.00" x2="515" y2="110.00"/>
<text class="tick" x="93" y="115.00" text-anchor="end">91.4</text>
<line class="axis" x1="105" y1="110" x2="105" y2="410"/>
<line class="axis" x1="105" y1="410" x2="515" y2="410"/>
<text class="tick" x="105.00" y="434" text-anchor="middle">2</text>
<circle cx="97.00" cy="150.28" r="4" fill="#245a73" opacity="0.3"/>
<circle cx="105.00" cy="150.28" r="4" fill="#245a73" opacity="0.3"/>
<circle cx="113.00" cy="150.28" r="4" fill="#245a73" opacity="0.3"/>
<text class="tick" x="241.67" y="434" text-anchor="middle">6</text>
<circle cx="233.67" cy="250.31" r="4" fill="#245a73" opacity="0.3"/>
<circle cx="241.67" cy="250.31" r="4" fill="#245a73" opacity="0.3"/>
<circle cx="249.67" cy="250.31" r="4" fill="#245a73" opacity="0.3"/>
<text class="tick" x="378.33" y="434" text-anchor="middle">10</text>
<circle cx="370.33" cy="273.38" r="4" fill="#245a73" opacity="0.3"/>
<circle cx="378.33" cy="273.38" r="4" fill="#245a73" opacity="0.3"/>
<circle cx="386.33" cy="273.38" r="4" fill="#245a73" opacity="0.3"/>
<text class="tick" x="515.00" y="434" text-anchor="middle">14</text>
<circle cx="507.00" cy="279.57" r="4" fill="#245a73" opacity="0.3"/>
<circle cx="515.00" cy="279.57" r="4" fill="#245a73" opacity="0.3"/>
<circle cx="523.00" cy="279.57" r="4" fill="#245a73" opacity="0.3"/>
<polyline points="105.00,150.28 241.67,250.31 378.33,273.38 515.00,279.57" fill="none" stroke="#245a73" stroke-width="2.5" stroke-linejoin="round" stroke-linecap="round"/>
<circle cx="105.00" cy="150.28" r="5.5" fill="white" stroke="#245a73" stroke-width="2.5"/>
<circle cx="241.67" cy="250.31" r="5.5" fill="white" stroke="#245a73" stroke-width="2.5"/>
<circle cx="378.33" cy="273.38" r="5.5" fill="white" stroke="#245a73" stroke-width="2.5"/>
<circle cx="515.00" cy="279.57" r="5.5" fill="white" stroke="#245a73" stroke-width="2.5"/>
<text class="panel-title" x="890.0" y="86" text-anchor="middle">MemTable</text>
<text class="axis-label" x="890.0" y="450" text-anchor="middle">Size (MiB)</text>
<line class="grid" x1="685" y1="410.00" x2="1095" y2="410.00"/>
<text class="tick" x="673" y="415.00" text-anchor="end">61.8</text>
<line class="grid" x1="685" y1="350.00" x2="1095" y2="350.00"/>
<text class="tick" x="673" y="355.00" text-anchor="end">67.7</text>
<line class="grid" x1="685" y1="290.00" x2="1095" y2="290.00"/>
<text class="tick" x="673" y="295.00" text-anchor="end">73.6</text>
<line class="grid" x1="685" y1="230.00" x2="1095" y2="230.00"/>
<text class="tick" x="673" y="235.00" text-anchor="end">79.6</text>
<line class="grid" x1="685" y1="170.00" x2="1095" y2="170.00"/>
<text class="tick" x="673" y="175.00" text-anchor="end">85.5</text>
<line class="grid" x1="685" y1="110.00" x2="1095" y2="110.00"/>
<text class="tick" x="673" y="115.00" text-anchor="end">91.4</text>
<line class="axis" x1="685" y1="110" x2="685" y2="410"/>
<line class="axis" x1="685" y1="410" x2="1095" y2="410"/>
<text class="tick" x="685.00" y="434" text-anchor="middle">4</text>
<circle cx="677.00" cy="210.47" r="4" fill="#9a4d32" opacity="0.3"/>
<circle cx="685.00" cy="210.47" r="4" fill="#9a4d32" opacity="0.3"/>
<circle cx="693.00" cy="210.47" r="4" fill="#9a4d32" opacity="0.3"/>
<text class="tick" x="821.67" y="434" text-anchor="middle">8</text>
<circle cx="813.67" cy="232.95" r="4" fill="#9a4d32" opacity="0.3"/>
<circle cx="821.67" cy="232.95" r="4" fill="#9a4d32" opacity="0.3"/>
<circle cx="829.67" cy="232.95" r="4" fill="#9a4d32" opacity="0.3"/>
<text class="tick" x="958.33" y="434" text-anchor="middle">16</text>
<circle cx="950.33" cy="273.38" r="4" fill="#9a4d32" opacity="0.3"/>
<circle cx="958.33" cy="273.38" r="4" fill="#9a4d32" opacity="0.3"/>
<circle cx="966.33" cy="273.38" r="4" fill="#9a4d32" opacity="0.3"/>
<text class="tick" x="1095.00" y="434" text-anchor="middle">32</text>
<circle cx="1087.00" cy="369.66" r="4" fill="#9a4d32" opacity="0.3"/>
<circle cx="1095.00" cy="369.66" r="4" fill="#9a4d32" opacity="0.3"/>
<circle cx="1103.00" cy="369.66" r="4" fill="#9a4d32" opacity="0.3"/>
<polyline points="685.00,210.47 821.67,232.95 958.33,273.38 1095.00,369.66" fill="none" stroke="#9a4d32" stroke-width="2.5" stroke-linejoin="round" stroke-linecap="round"/>
<circle cx="685.00" cy="210.47" r="5.5" fill="white" stroke="#9a4d32" stroke-width="2.5"/>
<circle cx="821.67" cy="232.95" r="5.5" fill="white" stroke="#9a4d32" stroke-width="2.5"/>
<circle cx="958.33" cy="273.38" r="5.5" fill="white" stroke="#9a4d32" stroke-width="2.5"/>
<circle cx="1095.00" cy="369.66" r="5.5" fill="white" stroke="#9a4d32" stroke-width="2.5"/>
</svg>
